<?xml version="1.0"?>
<svg width="60" height="60" viewBox="0 0 2481 2073" xmlns="http://www.w3.org/2000/svg">
	<title>Map-Marker-Centered</title>
	<g transform="translate(510,260)">
		<path d="m730.940002,1839.629028c-38.765991,-190.301025 -107.115967,-348.665039 -189.903015,-495.439941c-61.406982,-108.87207 -132.543976,-209.363037 -198.363983,-314.937988c-21.972015,-35.24408 -40.93399,-72.477051 -62.046997,-109.054077c-42.216003,-73.136963 -76.444,-157.934998 -74.268997,-267.932007c2.125,-107.472961 33.207993,-193.68399 78.029984,-264.171997c73.719025,-115.934967 197.201019,-210.988983 362.884003,-235.968979c135.466003,-20.423996 262.475037,14.082001 352.54303,66.748001c73.600037,43.037994 130.596008,100.527008 173.919983,168.279999c45.219971,70.716003 76.359009,154.26001 78.970947,263.231995c1.337036,55.830017 -7.804932,107.531982 -20.68396,150.417969c-13.033936,43.409058 -33.995972,79.695007 -52.645996,118.454041c-36.406006,75.658997 -82.04895,144.981995 -127.85498,214.346008c-136.437012,206.605957 -264.496033,417.309937 -320.580017,706.026978z"
		  stroke="#000000" stroke-width="37" fill="#999999"/>
		<circle cx="729.546" cy="651.047" r="183.333" fill="#fff" stroke="#000" stroke-width="20"/>
	</g>
</svg>